<?xml version="1.0" encoding="UTF-8"?>
<svg width="1024px" height="1024px" viewBox="0 0 1024 1024" version="1.1" xmlns="http://www.w3.org/2000/svg" xmlns:xlink="http://www.w3.org/1999/xlink">
    <title>1024备份</title>
    <defs>
        <path d="M0,0 L1024,0 L1024,1024 L0,1024 L0,0 Z" id="path-1"></path>
    </defs>
    <g id="1024备份" stroke="none" fill="none" xlink:href="#path-1" fill-rule="evenodd">
        <use fill="#FAFAFA" xlink:href="#path-1"></use>
        <g id="编组" stroke-width="1" transform="translate(198, 222)">
            <g id="路径">
                <path d="M368.589502,255.798966 C394.092887,210.391853 459.551329,210.489951 484.919697,255.970638 C495.16622,274.344393 494.935465,296.757334 484.308441,314.912822 L339.862906,561.690608 C333.69879,572.218976 322.404048,578.693444 310.193649,578.693444 L271.080603,578.693444 C233.553388,578.693444 209.898501,538.338378 228.263197,505.642314 L368.589502,255.798966 Z" fill="#4574FF"></path>
                <path d="M515.698544,403.640012 C525.306808,388.319557 547.643442,388.302389 557.278709,403.605678 L620.382955,503.834859 C640.949646,536.496588 617.449415,579 578.822429,579 L520.475673,579 C508.63841,579 497.635795,572.913019 491.353846,562.894761 L464.583761,520.209868 C457.855031,509.480399 457.857486,495.852134 464.586216,485.122665 L515.698544,403.640012 Z" fill="#0D1942"></path>
                <path d="M265.846874,35.5250532 C284.177201,2.31471045 325.988122,-9.76434176 359.229178,8.54810272 C392.472689,26.8605472 404.560346,68.6292049 386.230018,101.839302 L132.811458,560.97204 C126.765911,571.927134 115.236241,578.727778 102.715795,578.727778 L49.167033,578.727778 C11.8003642,578.727778 -11.8699879,538.684174 6.17312298,505.995467 L265.846874,35.5250532 Z" fill="#0D1942" fill-rule="nonzero"></path>
            </g>
        </g>
    </g>
</svg>